<svg xmlns="http://www.w3.org/2000/svg" width="56" height="56" viewBox="0 0 56 56">
    <g fill="none" fill-rule="evenodd">
        <circle cx="28" cy="28" r="28" fill="#E0D14D"/>
        <g fill="#274149" fill-rule="nonzero">
            <path d="M38.124 26.74c-2.34 0-4.245 1.866-4.245 4.16v.76c-.94-.33-2.757-.76-5.837-.76-3.079 0-4.896.43-5.836.76v-.76c0-2.294-1.905-4.16-4.245-4.16-1.463 0-2.653 1.166-2.653 2.6 0 1.052.64 1.996 1.634 2.4a.777.777 0 0 1 .488.72l.53 2.08c0 1.867 1.444 3.409 3.294 3.615-.436.204-.74.637-.74 1.14 0 .7.58 1.268 1.294 1.268.714 0 1.294-.568 1.294-1.268 0-.486-.282-.902-.692-1.116h11.266a1.26 1.26 0 0 0-.691 1.116c0 .7.579 1.268 1.293 1.268s1.294-.568 1.294-1.268a1.26 1.26 0 0 0-.74-1.14c1.849-.206 3.292-1.748 3.292-3.615l.53-2.08c0-.315.192-.596.489-.72a2.594 2.594 0 0 0 1.634-2.4c0-1.434-1.19-2.6-2.653-2.6z"/>
            <path d="M23.665 29.684c1.104-.197 2.542-.344 4.377-.344 1.836 0 3.274.147 4.378.344.417-1.882 1.784-3.418 3.582-4.108V22.8c0-4.308-3.563-7.8-7.96-7.8-4.395 0-7.959 3.492-7.959 7.8v2.776c1.797.69 3.165 2.226 3.582 4.108z"/>
        </g>
    </g>
</svg>
