<svg xmlns="http://www.w3.org/2000/svg" width="56" height="56" viewBox="0 0 56 56">
    <g fill="none" fill-rule="evenodd">
        <circle cx="28" cy="28" r="28" fill="#E0D14D"/>
        <g fill="#274149" fill-rule="nonzero">
            <path d="M28.41 25.695c-.317 0-.523.028-.644.056v4.098c.121.028.317.028.495.028 1.287.01 2.126-.697 2.126-2.193.009-1.3-.756-1.989-1.977-1.989zM22.918 25.677c-.29 0-.485.028-.587.056v1.849c.121.028.27.037.475.037.756 0 1.222-.38 1.222-1.022 0-.576-.4-.92-1.11-.92z"/>
            <path d="M32.324 15H19.095v25.774h18.867v-18.13l-6.703-4.612L32.324 15zm-7.466 13.047c-.485.455-1.203.66-2.042.66a3.53 3.53 0 0 1-.485-.029v2.24h-1.408v-6.18c.438-.074 1.053-.13 1.92-.13.877 0 1.502.167 1.922.502.4.316.67.836.67 1.45 0 .613-.204 1.133-.577 1.487zm7.97-3.392h3.843v1.161h-2.415v1.431h2.256V28.4h-2.256v2.519h-1.427v-6.263zm-.931 2.982c0 1.2-.438 2.026-1.044 2.537-.662.549-1.67.81-2.9.81-.737 0-1.26-.048-1.613-.094v-6.152c.522-.083 1.203-.13 1.92-.13 1.194 0 1.968.214 2.575.67.652.483 1.062 1.254 1.062 2.36z"/>
            <path d="M33.648 15l-.862 2.457 5.176 3.562z"/>
        </g>
    </g>
</svg>
