<svg xmlns="http://www.w3.org/2000/svg" width="56" height="56" viewBox="0 0 56 56">
    <g fill="none" fill-rule="evenodd">
        <circle cx="28" cy="28" r="28" fill="#E0D14D"/>
        <g fill="#274149" fill-rule="nonzero">
            <path d="M35.34 15.159a1.49 1.49 0 0 0-1.49-1.49h-1.076l-.782 1.788-.82-1.789H25.77l-.87 3.28-1.167-3.28h-1.791a1.49 1.49 0 0 0-1.49 1.49v9.763H35.34V15.16zM27.891 45.247h.01c1.026 0 1.884-.452 2.48-1.308 1.206-1.728 1.152-4.858-.143-8.372-.36-.974-.298-1.786.187-2.482.93-1.335 3.191-1.943 4.898-1.943.358 0 .647-.29.647-.647V28.72h-2.62a.616.616 0 1 1 0-1.232h2.62v-.657a.647.647 0 0 0-.647-.648H20.468a.648.648 0 0 0-.647.648v3.664c0 .357.29.647.647.647 1.707 0 3.968.608 4.899 1.943.485.696.546 1.508.187 2.482-1.296 3.514-1.35 6.644-.144 8.372.596.856 1.454 1.308 2.481 1.308zm-1.123-2.801a1.128 1.128 0 1 1 2.256 0 1.128 1.128 0 0 1-2.256 0z"/>
        </g>
    </g>
</svg>
